<svg width="1024" height="1024" viewBox="0 0 1024 1024" fill="none" xmlns="http://www.w3.org/2000/svg">
<path d="M496.513 14.4144C497.894 -4.80463 526.106 -4.80488 527.487 14.4141L553.443 375.67C554.36 388.421 569.431 394.664 579.095 386.295L852.895 149.203C867.462 136.589 887.411 156.538 874.798 171.105L637.705 444.905C629.336 454.569 635.579 469.64 648.33 470.557L1009.59 496.513C1028.8 497.894 1028.8 526.106 1009.59 527.487L648.33 553.443C635.579 554.36 629.336 569.431 637.705 579.095L874.797 852.895C887.411 867.462 867.462 887.411 852.895 874.798L579.095 637.705C569.431 629.336 554.36 635.579 553.443 648.33L527.487 1009.59C526.106 1028.8 497.894 1028.8 496.513 1009.59L470.557 648.33C469.64 635.579 454.569 629.336 444.905 637.705L171.105 874.797C156.538 887.411 136.589 867.462 149.203 852.895L386.295 579.095C394.664 569.431 388.421 554.36 375.67 553.443L14.4144 527.487C-4.80463 526.106 -4.80488 497.894 14.4141 496.513L375.67 470.557C388.421 469.64 394.664 454.569 386.295 444.905L149.203 171.105C136.589 156.538 156.538 136.589 171.105 149.203L444.905 386.295C454.569 394.664 469.64 388.421 470.557 375.67L496.513 14.4144Z" fill="#0A58BF"/>
</svg>
