<svg width="743" height="128" viewBox="0 0 743 128" fill="none" xmlns="http://www.w3.org/2000/svg">
<path d="M709.616 100.722C699.192 100.722 690.637 97.332 683.952 90.5511C677.266 83.7262 673.924 75.074 673.924 64.5944C673.924 54.1589 677.244 45.5507 683.886 38.7699C690.571 31.945 698.994 28.5325 709.155 28.5325C719.139 28.5325 727.276 31.6367 733.566 37.8452C739.855 44.0096 743 51.8693 743 61.4242V68.2931H682.698V58.1878H726.704C726.396 53.6966 724.681 49.9979 721.558 47.0918C718.435 44.1417 714.301 42.6667 709.155 42.6667C703.701 42.6667 699.192 44.6481 695.63 48.6109C692.111 52.5298 690.352 57.7915 690.352 64.3963C690.352 71.2652 692.309 76.7472 696.223 80.8421C700.138 84.937 705.02 86.9845 710.87 86.9845C713.641 86.9845 716.082 86.6103 718.193 85.8617C720.348 85.0691 722.284 83.9683 723.999 82.5593C725.714 81.1503 727.584 78.9708 729.607 76.0206L741.351 83.1538C738.536 87.7331 735.655 91.2116 732.708 93.5893C729.761 95.9229 726.462 97.6842 722.811 98.8731C719.205 100.106 714.806 100.722 709.616 100.722Z" fill="black"/>
<path d="M638.787 100.722C633.949 100.722 629.771 100.194 626.252 99.1373C622.777 98.0805 619.698 96.5394 617.015 94.5139C614.332 92.4444 612.155 90.1988 610.484 87.7771C608.856 85.3113 608.043 84.0784 608.043 84.0784L619.72 76.4169C619.72 76.4169 620.336 77.2976 621.568 79.0588C622.843 80.8201 624.317 82.3392 625.988 83.6161C627.659 84.893 629.551 85.8837 631.662 86.5882C633.773 87.2487 636.28 87.579 639.183 87.579C642.746 87.579 645.583 86.9185 647.694 85.5975C649.849 84.2766 650.927 82.3832 650.927 79.9174C650.927 77.6278 649.981 75.8665 648.09 74.6336C646.199 73.4008 642.064 72.0358 635.687 70.5387C626.846 68.4692 620.512 65.6952 616.686 62.2167C612.903 58.7382 611.012 54.3351 611.012 49.0072C611.012 42.7547 613.607 37.7792 618.797 34.0805C623.987 30.3818 630.518 28.5325 638.392 28.5325C642.438 28.5325 646.001 28.9508 649.08 29.7874C652.202 30.58 654.973 31.8129 657.393 33.4861C659.812 35.1152 661.813 36.9426 663.396 38.968C665.024 40.9935 665.837 42.0062 665.837 42.0062L654.753 49.9319C654.753 49.9319 654.204 49.2934 653.104 48.0165C652.005 46.6956 650.685 45.5287 649.146 44.516C647.606 43.5033 645.935 42.7767 644.131 42.3364C642.328 41.8521 640.371 41.6099 638.26 41.6099C634.961 41.6099 632.322 42.2704 630.343 43.5913C628.363 44.8682 627.374 46.4534 627.374 48.3467C627.374 50.4603 628.319 52.1555 630.211 53.4324C632.146 54.6653 636.412 56.0523 643.01 57.5934C651.763 59.6188 658.008 62.3268 661.747 65.7172C665.529 69.0636 667.421 73.4888 667.421 78.9928C667.421 85.6416 664.782 90.9254 659.504 94.8442C654.226 98.763 647.32 100.722 638.787 100.722Z" fill="black"/>
<path d="M562.623 98.807V30.3818H579.117V42.9309L577.467 41.0815H579.38C581.052 37.1627 583.603 34.1025 587.034 31.9009C590.508 29.6553 594.115 28.5325 597.854 28.5325C598.909 28.5325 600.009 28.6206 601.152 28.7967C602.34 28.9728 603.396 29.215 604.319 29.5232C605.243 29.7874 605.705 29.9195 605.705 29.9195V46.2993C605.705 46.2993 605.133 46.1232 603.989 45.7709C602.846 45.3746 601.548 45.0444 600.097 44.7802C598.689 44.516 597.436 44.3839 596.336 44.3839C591.762 44.3839 587.891 46.0791 584.724 49.4696C581.602 52.816 580.04 57.2191 580.04 62.679V98.807H562.623Z" fill="black"/>
<path d="M518.261 100.722C507.837 100.722 499.282 97.332 492.597 90.5511C485.911 83.7262 482.568 75.074 482.568 64.5944C482.568 54.1589 485.889 45.5507 492.531 38.7699C499.216 31.945 507.639 28.5325 517.799 28.5325C527.784 28.5325 535.921 31.6367 542.21 37.8452C548.5 44.0096 551.645 51.8693 551.645 61.4242V68.2931H491.343V58.1878H535.349C535.041 53.6966 533.326 49.9979 530.203 47.0918C527.08 44.1417 522.946 42.6667 517.799 42.6667C512.345 42.6667 507.837 44.6481 504.274 48.6109C500.756 52.5298 498.996 57.7915 498.996 64.3963C498.996 71.2652 500.954 76.7472 504.868 80.8421C508.783 84.937 513.665 86.9845 519.515 86.9845C522.286 86.9845 524.727 86.6103 526.838 85.8617C528.993 85.0691 530.929 83.9683 532.644 82.5593C534.359 81.1503 536.229 78.9708 538.252 76.0206L549.996 83.1538C547.181 87.7331 544.3 91.2116 541.353 93.5893C538.406 95.9229 535.107 97.6842 531.456 98.8731C527.85 100.106 523.451 100.722 518.261 100.722Z" fill="black"/>
<path d="M435.052 98.807L400.48 4.22704H419.547L441.583 66.9061L443.958 74.1713H444.222L446.531 66.9721L468.699 4.22704H487.37L451.743 98.807H435.052Z" fill="black"/>
<path d="M386.878 100.722C380.5 100.722 375.42 98.9611 371.638 95.4386C367.855 91.872 365.964 86.5222 365.964 79.3891V12.4169H383.381V77.0114C383.381 80.3137 384.041 82.7135 385.361 84.2105C386.724 85.6636 388.681 86.4121 391.232 86.4561C392.2 86.4561 393.146 86.3681 394.069 86.192C394.993 86.0158 396.115 85.7296 397.434 85.3333C398.754 84.893 399.413 84.6729 399.413 84.6729V98.4768C399.413 98.4768 398.622 98.719 397.038 99.2033C395.499 99.6877 393.915 100.062 392.288 100.326C390.661 100.59 388.857 100.722 386.878 100.722ZM355.54 44.4499V30.3818H399.347V44.4499H355.54Z" fill="black"/>
<path d="M283.515 98.807V4.22704H300.668V40.4211H300.932C302.956 36.8545 305.925 33.9924 309.839 31.8349C313.754 29.6333 318.064 28.5325 322.77 28.5325C330.423 28.5325 336.427 30.8442 340.782 35.4675C345.136 40.0908 347.313 46.3213 347.313 54.1589V98.807H329.83V58.1878C329.83 53.5645 328.686 49.9539 326.399 47.356C324.156 44.7141 320.813 43.3932 316.371 43.3932C312.104 43.3932 308.454 45.0444 305.419 48.3467C302.428 51.6491 300.932 55.7221 300.932 60.5655V98.807H283.515Z" fill="black"/>
<path d="M231.677 128C226.574 128 222.044 127.384 218.086 126.151C214.171 124.962 210.696 123.223 207.661 120.933C204.671 118.687 202.317 116.2 200.602 113.47C198.931 110.784 198.095 109.441 198.095 109.441L211.884 102.374C211.884 102.374 212.478 103.298 213.665 105.148C214.897 107.041 216.348 108.67 218.02 110.035C219.691 111.4 221.626 112.435 223.825 113.139C226.069 113.888 228.598 114.262 231.413 114.262C237.658 114.262 242.453 112.523 245.795 109.044C249.138 105.566 250.809 100.766 250.809 94.646V88.2394H250.546C248.302 91.3216 245.268 93.8314 241.441 95.7688C237.614 97.7062 233.106 98.6749 227.916 98.6749C218.811 98.6749 211.224 95.4606 205.154 89.032C199.129 82.5593 196.116 74.1273 196.116 63.7358C196.116 53.4324 199.173 45.0003 205.286 38.4396C211.444 31.8349 219.295 28.5325 228.84 28.5325C233.59 28.5325 237.944 29.5012 241.903 31.4386C245.905 33.376 248.984 35.9298 251.139 39.1001H255.362L251.403 43.7234V30.3818H268.029V93.3251C268.029 104.377 264.796 112.919 258.331 118.952C251.909 124.984 243.024 128 231.677 128ZM232.204 84.2105C237.658 84.2105 242.189 82.3392 245.795 78.5965C249.446 74.8098 251.249 69.8122 251.205 63.6037C251.205 57.4393 249.402 52.5077 245.795 48.8091C242.189 45.0664 237.636 43.195 232.138 43.195C226.684 43.195 222.154 45.0664 218.547 48.8091C214.941 52.5518 213.137 57.5053 213.137 63.6698C213.137 70.0103 214.919 75.0299 218.481 78.7286C222.088 82.3832 226.662 84.2105 232.204 84.2105Z" fill="black"/>
<path d="M166.407 98.807V30.3818H183.825V98.807H166.407ZM175.116 20.5408C172.257 20.5408 169.816 19.5501 167.793 17.5686C165.769 15.5432 164.758 13.0994 164.758 10.2374C164.758 7.28723 165.769 4.84348 167.793 2.90609C169.816 0.968697 172.257 0 175.116 0C178.107 0 180.57 0.968697 182.505 2.90609C184.484 4.84348 185.474 7.28723 185.474 10.2374C185.474 13.0994 184.484 15.5432 182.505 17.5686C180.57 19.5501 178.107 20.5408 175.116 20.5408Z" fill="black"/>
<path d="M87.0054 98.807V30.3818H103.829V42.9309L101.85 40.4211H104.027C106.182 36.8105 109.283 33.9264 113.33 31.7688C117.376 29.6113 121.687 28.5325 126.261 28.5325C133.914 28.5325 139.918 30.8442 144.272 35.4675C148.627 40.0468 150.804 46.3213 150.804 54.291V98.807H133.32V58.1878C133.32 53.4764 132.177 49.8438 129.89 47.29C127.646 44.7362 124.26 43.4592 119.729 43.4592C115.419 43.4592 111.79 45.0664 108.843 48.2807C105.896 51.495 104.423 55.5019 104.423 60.3013V98.807H87.0054Z" fill="black"/>
<path d="M11.1499 79.6533L11.0839 56.9329L55.0897 4.22704H77.1255L37.0123 50.6584L11.1499 79.6533ZM0 98.807V4.22704H18.2753V98.807H0ZM57.7287 98.807L27.2479 52.4417L39.4534 39.3643L79.2367 98.807H57.7287Z" fill="black"/>
</svg>
