<svg width="185" height="32" viewBox="0 0 185 32" fill="none" xmlns="http://www.w3.org/2000/svg">
<path d="M176.688 25.1806C174.092 25.1806 171.962 24.333 170.298 22.6378C168.633 20.9315 167.801 18.7685 167.801 16.1486C167.801 13.5397 168.627 11.3877 170.281 9.69247C171.946 7.98624 174.043 7.13313 176.573 7.13313C179.059 7.13313 181.085 7.90919 182.651 9.4613C184.217 11.0024 185 12.9673 185 15.356V17.0733H169.985V14.547H180.942C180.866 13.4241 180.439 12.4995 179.661 11.773C178.884 11.0354 177.854 10.6667 176.573 10.6667C175.215 10.6667 174.092 11.162 173.205 12.1527C172.329 13.1324 171.891 14.4479 171.891 16.0991C171.891 17.8163 172.378 19.1868 173.353 20.2105C174.328 21.2343 175.543 21.7461 177 21.7461C177.69 21.7461 178.298 21.6526 178.823 21.4654C179.36 21.2673 179.842 20.9921 180.269 20.6398C180.696 20.2876 181.161 19.7427 181.665 19.0052L184.589 20.7884C183.888 21.9333 183.171 22.8029 182.437 23.3973C181.704 23.9807 180.882 24.4211 179.973 24.7183C179.075 25.0265 177.98 25.1806 176.688 25.1806Z" fill="white"/>
<path d="M159.052 25.1806C157.847 25.1806 156.807 25.0485 155.931 24.7843C155.066 24.5201 154.299 24.1348 153.631 23.6285C152.963 23.1111 152.421 22.5497 152.005 21.9443C151.6 21.3278 151.397 21.0196 151.397 21.0196L154.305 19.1042C154.305 19.1042 154.458 19.3244 154.765 19.7647C155.082 20.205 155.449 20.5848 155.865 20.904C156.281 21.2233 156.752 21.4709 157.278 21.6471C157.804 21.8122 158.428 21.8947 159.151 21.8947C160.038 21.8947 160.744 21.7296 161.27 21.3994C161.806 21.0691 162.075 20.5958 162.075 19.9794C162.075 19.4069 161.839 18.9666 161.368 18.6584C160.897 18.3502 159.868 18.0089 158.28 17.6347C156.079 17.1173 154.502 16.4238 153.549 15.5542C152.607 14.6846 152.136 13.5838 152.136 12.2518C152.136 10.6887 152.782 9.44479 154.075 8.52012C155.367 7.59546 156.993 7.13313 158.953 7.13313C159.961 7.13313 160.848 7.2377 161.615 7.44685C162.392 7.64499 163.082 7.95322 163.685 8.37152C164.287 8.77881 164.785 9.23564 165.179 9.742C165.585 10.2484 165.787 10.5015 165.787 10.5015L163.027 12.483C163.027 12.483 162.891 12.3234 162.617 12.0041C162.343 11.6739 162.014 11.3822 161.631 11.129C161.248 10.8758 160.832 10.6942 160.383 10.5841C159.934 10.463 159.446 10.4025 158.921 10.4025C158.099 10.4025 157.442 10.5676 156.949 10.8978C156.457 11.2171 156.21 11.6133 156.21 12.0867C156.21 12.6151 156.446 13.0389 156.916 13.3581C157.398 13.6663 158.461 14.0131 160.103 14.3983C162.283 14.9047 163.838 15.5817 164.769 16.4293C165.711 17.2659 166.182 18.3722 166.182 19.7482C166.182 21.4104 165.524 22.7313 164.21 23.711C162.896 24.6907 161.177 25.1806 159.052 25.1806Z" fill="white"/>
<path d="M140.088 24.7018V7.59546H144.195V10.7327L143.784 10.2704H144.26C144.676 9.29068 145.312 8.52563 146.166 7.97523C147.031 7.41383 147.929 7.13313 148.86 7.13313C149.123 7.13313 149.397 7.15514 149.681 7.19917C149.977 7.24321 150.24 7.30375 150.47 7.38081C150.7 7.44685 150.815 7.47988 150.815 7.47988V11.5748C150.815 11.5748 150.672 11.5308 150.388 11.4427C150.103 11.3437 149.78 11.2611 149.418 11.195C149.068 11.129 148.756 11.096 148.482 11.096C147.343 11.096 146.379 11.5198 145.591 12.3674C144.813 13.204 144.425 14.3048 144.425 15.6698V24.7018H140.088Z" fill="white"/>
<path d="M129.042 25.1806C126.447 25.1806 124.317 24.333 122.652 22.6378C120.987 20.9315 120.155 18.7685 120.155 16.1486C120.155 13.5397 120.982 11.3877 122.636 9.69247C124.3 7.98624 126.397 7.13313 128.927 7.13313C131.413 7.13313 133.439 7.90919 135.005 9.4613C136.571 11.0024 137.354 12.9673 137.354 15.356V17.0733H122.34V14.547H133.297C133.22 13.4241 132.793 12.4995 132.016 11.773C131.238 11.0354 130.209 10.6667 128.927 10.6667C127.569 10.6667 126.447 11.162 125.56 12.1527C124.683 13.1324 124.245 14.4479 124.245 16.0991C124.245 17.8163 124.733 19.1868 125.707 20.2105C126.682 21.2343 127.898 21.7461 129.354 21.7461C130.044 21.7461 130.652 21.6526 131.178 21.4654C131.714 21.2673 132.196 20.9921 132.623 20.6398C133.05 20.2876 133.516 19.7427 134.02 19.0052L136.944 20.7884C136.243 21.9333 135.525 22.8029 134.792 23.3973C134.058 23.9807 133.237 24.4211 132.328 24.7183C131.43 25.0265 130.334 25.1806 129.042 25.1806Z" fill="white"/>
<path d="M108.324 24.7018L99.7158 1.05676H104.463L109.95 16.7265L110.541 18.5428H110.607L111.182 16.743L116.702 1.05676H121.351L112.48 24.7018H108.324Z" fill="white"/>
<path d="M96.329 25.1806C94.741 25.1806 93.4761 24.7403 92.5343 23.8596C91.5924 22.968 91.1215 21.6305 91.1215 19.8473V3.10423H95.4583V19.2528C95.4583 20.0784 95.6226 20.6784 95.9511 21.0526C96.2906 21.4159 96.778 21.603 97.4132 21.614C97.6541 21.614 97.8896 21.592 98.1196 21.548C98.3495 21.504 98.6288 21.4324 98.9573 21.3333C99.2859 21.2233 99.4502 21.1682 99.4502 21.1682V24.6192C99.4502 24.6192 99.253 24.6797 98.8588 24.8008C98.4755 24.9219 98.0812 25.0155 97.676 25.0815C97.2708 25.1476 96.8218 25.1806 96.329 25.1806ZM88.526 11.1125V7.59546H99.4337V11.1125H88.526Z" fill="white"/>
<path d="M70.5925 24.7018V1.05676H74.8636V10.1053H74.9293C75.4331 9.21362 76.1723 8.49811 77.147 7.95872C78.1217 7.40832 79.1949 7.13313 80.3668 7.13313C82.2723 7.13313 83.7672 7.71104 84.8514 8.86687C85.9356 10.0227 86.4777 11.5803 86.4777 13.5397V24.7018H82.1245V14.547C82.1245 13.3911 81.8398 12.4885 81.2703 11.839C80.7117 11.1785 79.8794 10.8483 78.7733 10.8483C77.711 10.8483 76.802 11.2611 76.0464 12.0867C75.3017 12.9123 74.9293 13.9305 74.9293 15.1414V24.7018H70.5925Z" fill="white"/>
<path d="M57.6853 32C56.4149 32 55.2869 31.8459 54.3012 31.5377C53.3266 31.2405 52.4614 30.8056 51.7057 30.2332C50.961 29.6718 50.3751 29.0499 49.948 28.3674C49.5319 27.6959 49.3238 27.3602 49.3238 27.3602L52.7571 25.5934C52.7571 25.5934 52.9049 25.8246 53.2006 26.2869C53.5073 26.7602 53.8687 27.1675 54.2848 27.5088C54.701 27.85 55.1828 28.1087 55.7304 28.2848C56.289 28.472 56.9187 28.5655 57.6196 28.5655C59.1747 28.5655 60.3684 28.1307 61.2007 27.2611C62.033 26.3915 62.4492 25.1916 62.4492 23.6615V22.0599H62.3835C61.825 22.8304 61.0693 23.4579 60.1165 23.9422C59.1637 24.4266 58.0412 24.6687 56.7489 24.6687C54.4819 24.6687 52.5928 23.8652 51.0815 22.258C49.5811 20.6398 48.831 18.5318 48.831 15.934C48.831 13.3581 49.5921 11.2501 51.1143 9.60991C52.6476 7.95872 54.6024 7.13313 56.9789 7.13313C58.1617 7.13313 59.2459 7.3753 60.2315 7.85965C61.2281 8.344 61.9947 8.98246 62.5313 9.77503H63.5827L62.597 10.9309V7.59546H66.7367V23.3313C66.7367 26.0943 65.9318 28.2298 64.3219 29.7379C62.723 31.246 60.5108 32 57.6853 32ZM57.8167 21.0526C59.1747 21.0526 60.3027 20.5848 61.2007 19.6491C62.1097 18.7024 62.5587 17.453 62.5478 15.9009C62.5478 14.3598 62.0987 13.1269 61.2007 12.2023C60.3027 11.2666 59.1692 10.7988 57.8003 10.7988C56.4423 10.7988 55.3143 11.2666 54.4162 12.2023C53.5182 13.1379 53.0692 14.3763 53.0692 15.9174C53.0692 17.5026 53.5127 18.7575 54.3998 19.6821C55.2978 20.5958 56.4368 21.0526 57.8167 21.0526Z" fill="white"/>
<path d="M41.4338 24.7018V7.59546H45.7706V24.7018H41.4338ZM43.6022 5.13519C42.8903 5.13519 42.2825 4.88751 41.7788 4.39216C41.275 3.88579 41.0231 3.27485 41.0231 2.55934C41.0231 1.82181 41.275 1.21087 41.7788 0.726523C42.2825 0.242174 42.8903 0 43.6022 0C44.3469 0 44.9602 0.242174 45.4421 0.726523C45.9349 1.21087 46.1813 1.82181 46.1813 2.55934C46.1813 3.27485 45.9349 3.88579 45.4421 4.39216C44.9602 4.88751 44.3469 5.13519 43.6022 5.13519Z" fill="white"/>
<path d="M21.6635 24.7018V7.59546H25.8525V10.7327L25.3597 10.1053H25.9018C26.4384 9.20261 27.2105 8.4816 28.218 7.94221C29.2256 7.40282 30.2988 7.13313 31.4378 7.13313C33.3433 7.13313 34.8382 7.71104 35.9224 8.86687C37.0066 10.0117 37.5487 11.5803 37.5487 13.5728V24.7018H33.1955V14.547C33.1955 13.3691 32.9107 12.461 32.3413 11.8225C31.7827 11.184 30.9395 10.8648 29.8115 10.8648C28.7382 10.8648 27.8347 11.2666 27.101 12.0702C26.3672 12.8738 26.0003 13.8755 26.0003 15.0753V24.7018H21.6635Z" fill="white"/>
<path d="M2.77622 19.9133L2.75979 14.2332L13.7168 1.05676H19.2035L9.21572 12.6646L2.77622 19.9133ZM0 24.7018V1.05676H4.55037V24.7018H0ZM14.3739 24.7018L6.78448 13.1104L9.82353 9.84107L19.7292 24.7018H14.3739Z" fill="white"/>
</svg>
