<svg width="819" height="128" viewBox="0 0 819 128" fill="none" xmlns="http://www.w3.org/2000/svg">
<path d="M61.8844 1.79564C62.0566 -0.598528 65.5729 -0.598558 65.745 1.79561L68.9802 46.7984C69.0943 48.3868 70.9728 49.1645 72.1773 48.122L106.303 18.5866C108.119 17.0153 110.605 19.5005 109.033 21.315L79.4823 55.4232C78.4393 56.6271 79.2174 58.5046 80.8066 58.6187L125.833 61.8522C128.228 62.0242 128.228 65.5387 125.833 65.7107L80.8066 68.9442C79.2174 69.0583 78.4393 70.9357 79.4823 72.1396L109.033 106.248C110.605 108.062 108.119 110.548 106.303 108.976L72.1773 79.4408C70.9728 78.3984 69.0943 79.176 68.9802 80.7644L65.745 125.767C65.5729 128.161 62.0566 128.161 61.8844 125.767L58.6493 80.7644C58.5351 79.176 56.6567 78.3984 55.4522 79.4408L21.3262 108.976C19.5107 110.548 17.0242 108.062 18.5963 106.248L48.1471 72.1396C49.1902 70.9357 48.4121 69.0583 46.8228 68.9442L1.79658 65.7107C-0.59884 65.5387 -0.598871 62.0242 1.79655 61.8522L46.8228 58.6187C48.4121 58.5046 49.1902 56.6271 48.1471 55.4232L18.5963 21.315C17.0242 19.5005 19.5106 17.0153 21.3262 18.5866L55.4522 48.122C56.6567 49.1645 58.5351 48.3868 58.6493 46.7984L61.8844 1.79564Z" fill="#0A58BF"/>
<path d="M187.985 86.3816L187.928 66.8232L225.871 21.4523H244.87L210.284 61.4219L187.985 86.3816ZM178.371 102.87V21.4523H194.129V102.87H178.371ZM228.146 102.87L201.865 62.957L212.389 51.6996L246.691 102.87H228.146Z" fill="black"/>
<path d="M253.389 102.87V43.9672H267.895V54.7698L266.188 52.6093H268.065C269.924 49.5011 272.597 47.0184 276.086 45.1612C279.575 43.3039 283.292 42.3752 287.236 42.3752C293.834 42.3752 299.011 44.3652 302.766 48.3451C306.52 52.2871 308.397 57.6884 308.397 64.549V102.87H293.323V67.9035C293.323 63.8477 292.337 60.7207 290.364 58.5223C288.43 56.3238 285.51 55.2246 281.604 55.2246C277.888 55.2246 274.759 56.6081 272.218 59.3751C269.677 62.1421 268.407 65.5913 268.407 69.7228V102.87H253.389Z" fill="black"/>
<path d="M321.851 102.87V43.9672H336.868V102.87H321.851ZM329.359 35.4957C326.894 35.4957 324.79 34.6428 323.045 32.9372C321.301 31.1936 320.428 29.0899 320.428 26.6262C320.428 24.0866 321.301 21.983 323.045 20.3152C324.79 18.6474 326.894 17.8135 329.359 17.8135C331.938 17.8135 334.062 18.6474 335.731 20.3152C337.437 21.983 338.29 24.0866 338.29 26.6262C338.29 29.0899 337.437 31.1936 335.731 32.9372C334.062 34.6428 331.938 35.4957 329.359 35.4957Z" fill="black"/>
<path d="M378.127 128C373.728 128 369.822 127.469 366.409 126.408C363.034 125.385 360.038 123.887 357.421 121.916C354.842 119.983 352.813 117.842 351.334 115.492C349.893 113.18 349.172 112.024 349.172 112.024L361.062 105.94C361.062 105.94 361.573 106.736 362.597 108.328C363.659 109.958 364.911 111.36 366.352 112.535C367.793 113.71 369.462 114.601 371.358 115.207C373.292 115.852 375.473 116.174 377.9 116.174C383.285 116.174 387.418 114.677 390.301 111.682C393.183 108.688 394.624 104.556 394.624 99.2878V93.7728H394.396C392.462 96.4261 389.846 98.5866 386.546 100.254C383.247 101.922 379.36 102.756 374.885 102.756C367.035 102.756 360.493 99.9891 355.259 94.4551C350.064 88.8832 347.466 81.6246 347.466 72.6793C347.466 63.8098 350.102 56.5513 355.373 50.9036C360.682 45.218 367.452 42.3752 375.681 42.3752C379.777 42.3752 383.531 43.2091 386.944 44.8769C390.395 46.5446 393.05 48.7431 394.908 51.4721H398.549L395.136 55.452V43.9672H409.471V98.1507C409.471 107.665 406.684 115.018 401.109 120.211C395.572 125.404 387.911 128 378.127 128ZM378.582 90.3046C383.285 90.3046 387.191 88.6937 390.301 85.4719C393.448 82.2122 395.003 77.9101 394.965 72.5656C394.965 67.2591 393.41 63.0139 390.301 59.8299C387.191 56.6081 383.266 54.9972 378.525 54.9972C373.823 54.9972 369.917 56.6081 366.807 59.8299C363.697 63.0518 362.142 67.316 362.142 72.6225C362.142 78.0806 363.678 82.4017 366.75 85.5856C369.86 88.7316 373.804 90.3046 378.582 90.3046Z" fill="black"/>
<path d="M422.823 102.87V21.4523H437.613V52.6093H437.841C439.585 49.5391 442.145 47.0753 445.52 45.218C448.896 43.3228 452.612 42.3752 456.67 42.3752C463.269 42.3752 468.445 44.3652 472.2 48.3451C475.954 52.325 477.831 57.6884 477.831 64.4353V102.87H462.757V67.9035C462.757 63.9236 461.771 60.8154 459.799 58.5791C457.865 56.3049 454.982 55.1678 451.152 55.1678C447.473 55.1678 444.326 56.5892 441.709 59.432C439.13 62.2747 437.841 65.7808 437.841 69.9503V102.87H422.823Z" fill="black"/>
<path d="M511.945 104.519C506.446 104.519 502.066 103.002 498.804 99.9701C495.543 96.8999 493.912 92.2946 493.912 86.1542V28.5024H508.93V84.1073C508.93 86.9501 509.499 89.0159 510.636 90.3046C511.812 91.5555 513.5 92.1998 515.699 92.2377C516.534 92.2377 517.349 92.1619 518.145 92.0103C518.942 91.8587 519.909 91.6123 521.046 91.2712C522.184 90.8921 522.753 90.7026 522.753 90.7026V102.585C522.753 102.585 522.07 102.794 520.705 103.211C519.378 103.628 518.013 103.95 516.609 104.177C515.206 104.405 513.651 104.519 511.945 104.519ZM484.924 56.0775V43.9672H522.696V56.0775H484.924Z" fill="black"/>
<path d="M553.481 102.87L523.673 21.4523H540.113L559.113 75.4084L561.16 81.6626H561.388L563.379 75.4653L582.493 21.4523H598.591L567.873 102.87H553.481Z" fill="black"/>
<path d="M625.226 104.519C616.238 104.519 608.862 101.6 603.098 95.7628C597.333 89.8877 594.451 82.4396 594.451 73.4185C594.451 64.4353 597.314 57.0251 603.041 51.1879C608.805 45.3128 616.067 42.3752 624.828 42.3752C633.436 42.3752 640.452 45.0474 645.875 50.3919C651.298 55.6984 654.01 62.4643 654.01 70.6894V76.6024H602.017V67.9035H639.959C639.694 64.0373 638.215 60.8534 635.522 58.3517C632.83 55.8121 629.265 54.5424 624.828 54.5424C620.125 54.5424 616.238 56.248 613.166 59.6594C610.132 63.0328 608.615 67.5623 608.615 73.2479C608.615 79.1609 610.303 83.8799 613.678 87.405C617.053 90.93 621.263 92.6926 626.307 92.6926C628.696 92.6926 630.801 92.3704 632.621 91.726C634.479 91.0438 636.148 90.0962 637.627 88.8832C639.106 87.6703 640.718 85.7941 642.462 83.2545L652.588 89.3949C650.161 93.3369 647.677 96.3313 645.136 98.3781C642.595 100.387 639.751 101.903 636.603 102.927C633.493 103.988 629.701 104.519 625.226 104.519Z" fill="black"/>
<path d="M663.475 102.87V43.9672H677.697V54.7698L676.274 53.1778H677.924C679.365 49.8044 681.565 47.1701 684.523 45.2749C687.519 43.3418 690.629 42.3752 693.852 42.3752C694.762 42.3752 695.71 42.451 696.696 42.6026C697.72 42.7543 698.63 42.9627 699.427 43.2281C700.223 43.4555 700.621 43.5692 700.621 43.5692V57.6694C700.621 57.6694 700.128 57.5178 699.142 57.2146C698.156 56.8734 697.038 56.5892 695.786 56.3617C694.573 56.1343 693.492 56.0206 692.544 56.0206C688.6 56.0206 685.262 57.4799 682.532 60.3985C679.839 63.2792 678.493 67.0696 678.493 71.7697V102.87H663.475Z" fill="black"/>
<path d="M729.146 104.519C724.974 104.519 721.372 104.064 718.338 103.154C715.342 102.244 712.687 100.918 710.374 99.1741C708.06 97.3926 706.183 95.4595 704.742 93.3748C703.339 91.2522 702.637 90.1909 702.637 90.1909L712.706 83.5957C712.706 83.5957 713.237 84.3537 714.299 85.8699C715.399 87.386 716.669 88.6937 718.11 89.7929C719.551 90.8921 721.182 91.745 723.002 92.3514C724.823 92.92 726.984 93.2043 729.487 93.2043C732.559 93.2043 735.005 92.6357 736.825 91.4986C738.684 90.3615 739.613 88.7316 739.613 86.609C739.613 84.638 738.797 83.1218 737.167 82.0605C735.536 80.9992 731.971 79.8242 726.472 78.5355C718.85 76.754 713.389 74.3661 710.089 71.3717C706.828 68.3773 705.197 64.5869 705.197 60.0005C705.197 54.6182 707.435 50.335 711.91 47.1511C716.385 43.9672 722.016 42.3752 728.805 42.3752C732.294 42.3752 735.365 42.7353 738.02 43.4555C740.713 44.1378 743.102 45.1991 745.188 46.6394C747.273 48.0419 748.999 49.6149 750.364 51.3584C751.767 53.102 752.469 53.9738 752.469 53.9738L742.912 60.7965C742.912 60.7965 742.438 60.2469 741.49 59.1477C740.542 58.0106 739.404 57.0061 738.077 56.1343C736.75 55.2625 735.308 54.6371 733.754 54.2581C732.199 53.8411 730.511 53.6327 728.691 53.6327C725.847 53.6327 723.571 54.2012 721.865 55.3383C720.158 56.4375 719.305 57.8021 719.305 59.432C719.305 61.2513 720.12 62.7106 721.751 63.8098C723.419 64.8712 727.098 66.0651 732.787 67.3918C740.333 69.1353 745.719 71.4664 748.942 74.385C752.203 77.2657 753.834 81.075 753.834 85.813C753.834 91.5365 751.559 96.085 747.008 99.4584C742.457 102.832 736.503 104.519 729.146 104.519Z" fill="black"/>
<path d="M790.216 104.519C781.228 104.519 773.852 101.6 768.088 95.7628C762.323 89.8877 759.441 82.4396 759.441 73.4185C759.441 64.4353 762.304 57.0251 768.031 51.1879C773.795 45.3128 781.057 42.3752 789.818 42.3752C798.426 42.3752 805.442 45.0474 810.865 50.3919C816.288 55.6984 819 62.4643 819 70.6894V76.6024H767.007V67.9035H804.949C804.684 64.0373 803.205 60.8534 800.512 58.3517C797.82 55.8121 794.255 54.5424 789.818 54.5424C785.115 54.5424 781.228 56.248 778.156 59.6594C775.122 63.0328 773.605 67.5623 773.605 73.2479C773.605 79.1609 775.293 83.8799 778.668 87.405C782.043 90.93 786.253 92.6926 791.297 92.6926C793.686 92.6926 795.791 92.3704 797.611 91.726C799.469 91.0438 801.138 90.0962 802.617 88.8832C804.096 87.6703 805.708 85.7941 807.452 83.2545L817.578 89.3949C815.151 93.3369 812.667 96.3313 810.126 98.3781C807.585 100.387 804.741 101.903 801.593 102.927C798.483 103.988 794.691 104.519 790.216 104.519Z" fill="black"/>
</svg>
